<svg xmlns="http://www.w3.org/2000/svg" viewBox="0 0 1920 1080" width="100%" height="100%" style="background: transparent;">
  <defs>
    <radialGradient id="gold-deep" cx="50%" cy="50%" r="50%">
      <stop offset="0%" stop-color="#FFD700" stop-opacity="0.9"/>
      <stop offset="50%" stop-color="#FF8C00" stop-opacity="0.3"/>
      <stop offset="100%" stop-color="#000" stop-opacity="0"/>
    </radialGradient>
    
    <radialGradient id="gold-medium" cx="50%" cy="50%" r="50%">
      <stop offset="0%" stop-color="#FFE259" stop-opacity="0.85"/>
      <stop offset="60%" stop-color="#FFA751" stop-opacity="0.25"/>
      <stop offset="100%" stop-color="#000" stop-opacity="0"/>
    </radialGradient>

    <radialGradient id="gold-bright" cx="50%" cy="50%" r="50%">
      <stop offset="0%" stop-color="#FFF5C0" stop-opacity="1"/>
      <stop offset="40%" stop-color="#FFD700" stop-opacity="0.6"/>
      <stop offset="100%" stop-color="#000" stop-opacity="0"/>
    </radialGradient>

    <style>
      /* Cadência de animação micro-síncrona para efeito de partículas vivas */
      @keyframes float-slow {
        0% { transform: translateY(0px) translateX(0px); opacity: 0.2; }
        50% { transform: translateY(-25px) translateX(10px); opacity: 0.65; }
        100% { transform: translateY(0px) translateX(0px); opacity: 0.2; }
      }

      @keyframes float-medium {
        0% { transform: translateY(0px) translateX(0px); opacity: 0.3; }
        50% { transform: translateY(-45px) translateX(-10px); opacity: 0.8; }
        100% { transform: translateY(0px) translateX(0px); opacity: 0.3; }
      }

      @keyframes float-fast {
        0% { transform: translateY(0px) translateX(0px); opacity: 0.4; }
        50% { transform: translateY(-65px) translateX(8px); opacity: 0.95; }
        100% { transform: translateY(0px) translateX(0px); opacity: 0.4; }
      }

      .layer-slow { animation: float-slow 20s infinite ease-in-out; transform-origin: center; }
      .layer-medium { animation: float-medium 14s infinite ease-in-out; transform-origin: center; }
      .layer-fast { animation: float-fast 9s infinite ease-in-out; transform-origin: center; }
    </style>
  </defs>

  <g class="layer-slow">
    <circle cx="100" cy="150" r="6" fill="url(#gold-deep)" /><circle cx="180" cy="280" r="8" fill="url(#gold-deep)" /><circle cx="290" cy="120" r="5" fill="url(#gold-medium)" /><circle cx="80" cy="450" r="7" fill="url(#gold-deep)" /><circle cx="220" cy="380" r="9" fill="url(#gold-deep)" />
    <circle cx="150" cy="600" r="7" fill="url(#gold-deep)" /><circle cx="310" cy="720" r="6" fill="url(#gold-deep)" /><circle cx="250" cy="890" r="9" fill="url(#gold-medium)" /><circle cx="90" cy="780" r="5" fill="url(#gold-deep)" /><circle cx="120" cy="950" r="8" fill="url(#gold-deep)" />
    <circle cx="450" cy="200" r="8" fill="url(#gold-deep)" /><circle cx="580" cy="110" r="5" fill="url(#gold-medium)" /><circle cx="690" cy="320" r="7" fill="url(#gold-deep)" /><circle cx="520" cy="480" r="9" fill="url(#gold-deep)" /><circle cx="640" cy="550" r="6" fill="url(#gold-medium)" />
    <circle cx="480" cy="710" r="6" fill="url(#gold-deep)" /><circle cx="610" cy="830" r="8" fill="url(#gold-deep)" /><circle cx="730" cy="690" r="5" fill="url(#gold-medium)" /><circle cx="550" cy="920" r="7" fill="url(#gold-deep)" /><circle cx="700" cy="800" r="9" fill="url(#gold-deep)" />
    <circle cx="900" cy="150" r="7" fill="url(#gold-medium)" /><circle cx="1050" cy="280" r="9" fill="url(#gold-deep)" /><circle cx="1180" cy="110" r="6" fill="url(#gold-deep)" /><circle cx="950" cy="420" r="8" fill="url(#gold-medium)" /><circle cx="1120" cy="350" r="5" fill="url(#gold-deep)" />
    <circle cx="880" cy="670" r="9" fill="url(#gold-deep)" /><circle cx="1020" cy="790" r="6" fill="url(#gold-deep)" /><circle cx="1150" cy="620" r="8" fill="url(#gold-medium)" /><circle cx="930" cy="940" r="5" fill="url(#gold-deep)" /><circle cx="1090" cy="880" r="7" fill="url(#gold-deep)" />
    <circle cx="1350" cy="180" r="8" fill="url(#gold-deep)" /><circle cx="1490" cy="290" r="6" fill="url(#gold-deep)" /><circle cx="1620" cy="130" r="9" fill="url(#gold-medium)" /><circle cx="1780" cy="390" r="5" fill="url(#gold-deep)" /><circle cx="1420" cy="450" r="7" fill="url(#gold-deep)" />
    <circle cx="1390" cy="690" r="6" fill="url(#gold-medium)" /><circle cx="1540" cy="810" r="8" fill="url(#gold-deep)" /><circle cx="1680" cy="650" r="5" fill="url(#gold-deep)" /><circle cx="1820" cy="870" r="9" fill="url(#gold-medium)" /><circle cx="1460" cy="930" r="6" fill="url(#gold-deep)" />
    <circle cx="1600" cy="250" r="7" fill="url(#gold-deep)" /><circle cx="1750" cy="720" r="8" fill="url(#gold-medium)" /><circle cx="1850" cy="190" r="5" fill="url(#gold-deep)" />
  </g>

  <g class="layer-medium">
    <circle cx="50" cy="100" r="4.5" fill="url(#gold-medium)" /><circle cx="150" cy="50" r="3.5" fill="url(#gold-deep)" /><circle cx="220" cy="190" r="4" fill="url(#gold-medium)" /><circle cx="340" cy="80" r="3" fill="url(#gold-medium)" />
    <circle cx="90" cy="300" r="4" fill="url(#gold-deep)" /><circle cx="280" cy="240" r="4.5" fill="url(#gold-medium)" /><circle cx="380" cy="350" r="3.5" fill="url(#gold-medium)" /><circle cx="190" cy="420" r="4" fill="url(#gold-deep)" />
    <circle cx="60" cy="550" r="3.5" fill="url(#gold-medium)" /><circle cx="130" cy="680" r="4.5" fill="url(#gold-medium)" /><circle cx="270" cy="590" r="3" fill="url(#gold-deep)" /><circle cx="390" cy="640" r="4" fill="url(#gold-medium)" />
    <circle cx="110" cy="820" r="4" fill="url(#gold-medium)" /><circle cx="230" cy="760" r="3.5" fill="url(#gold-deep)" /><circle cx="320" cy="910" r="4.5" fill="url(#gold-medium)" /><circle cx="70" cy="960" r="3" fill="url(#gold-medium)" />
    <circle cx="430" cy="60" r="4" fill="url(#gold-deep)" /><circle cx="510" cy="150" r="3" fill="url(#gold-medium)" /><circle cx="650" cy="90" r="4.5" fill="url(#gold-medium)" /><circle cx="760" cy="220" r="3.5" fill="url(#gold-deep)" />
    <circle cx="470" cy="310" r="3.5" fill="url(#gold-medium)" /><circle cx="590" cy="260" r="4.5" fill="url(#gold-medium)" /><circle cx="710" cy="390" r="4" fill="url(#gold-deep)" /><circle cx="790" cy="290" r="3" fill="url(#gold-medium)" />
    <circle cx="420" cy="530" r="4.5" fill="url(#gold-medium)" /><circle cx="560" cy="610" r="3" fill="url(#gold-deep)" /><circle cx="680" cy="490" r="4" fill="url(#gold-medium)" /><circle cx="750" cy="580" r="3.5" fill="url(#gold-medium)" />
    <circle cx="490" cy="780" r="3.5" fill="url(#gold-deep)" /><circle cx="540" cy="890" r="4" fill="url(#gold-medium)" /><circle cx="670" cy="740" r="4.5" fill="url(#gold-medium)" /><circle cx="780" cy="860" r="3" fill="url(#gold-deep)" />
    <circle cx="840" cy="70" r="4.5" fill="url(#gold-medium)" /><circle cx="960" cy="130" r="3" fill="url(#gold-medium)" /><circle cx="1080" cy="50" r="4" fill="url(#gold-deep)" /><circle cx="1150" cy="180" r="3.5" fill="url(#gold-medium)" />
    <circle cx="890" cy="240" r="3.5" fill="url(#gold-medium)" /><circle cx="1010" cy="360" r="4.5" fill="url(#gold-deep)" /><circle cx="1110" cy="290" r="4" fill="url(#gold-medium)" /><circle cx="1190" cy="390" r="3" fill="url(#gold-medium)" />
    <circle cx="820" cy="500" r="4" fill="url(#gold-deep)" /><circle cx="940" cy="590" r="3.5" fill="url(#gold-medium)" /><circle cx="1060" cy="470" r="4.5" fill="url(#gold-medium)" /><circle cx="1170" cy="540" r="4" fill="url(#gold-deep)" />
    <circle cx="860" cy="730" r="4.5" fill="url(#gold-medium)" /><circle cx="980" cy="820" r="3" fill="url(#gold-medium)" /><circle cx="1040" cy="710" r="4" fill="url(#gold-deep)" /><circle cx="1130" cy="930" r="3.5" fill="url(#gold-medium)" />
    <circle cx="1260" cy="80" r="3.5" fill="url(#gold-medium)" /><circle cx="1380" cy="140" r="4.5" fill="url(#gold-deep)" /><circle cx="1520" cy="60" r="3" fill="url(#gold-medium)" /><circle cx="1670" cy="120" r="4" fill="url(#gold-medium)" />
    <circle cx="1290" cy="270" r="4" fill="url(#gold-deep)" /><circle cx="1450" cy="320" r="3.5" fill="url(#gold-medium)" /><circle cx="1580" cy="220" r="4.5" fill="url(#gold-medium)" /><circle cx="1710" cy="340" r="3" fill="url(#gold-deep)" />
    <circle cx="1230" cy="480" r="4.5" fill="url(#gold-medium)" /><circle cx="1360" cy="560" r="3" fill="url(#gold-medium)" /><circle cx="1490" cy="440" r="4" fill="url(#gold-deep)" /><circle cx="1640" cy="510" r="3.5" fill="url(#gold-medium)" />
    <circle cx="1280" cy="760" r="3" fill="url(#gold-medium)" /><circle cx="1410" cy="670" r="4.5" fill="url(#gold-deep)" /><circle cx="1550" cy="790" r="3.5" fill="url(#gold-medium)" /><circle cx="1690" cy="730" r="4" fill="url(#gold-medium)" />
    <circle cx="1320" cy="910" r="4" fill="url(#gold-medium)" /><circle cx="1480" cy="860" r="3.5" fill="url(#gold-medium)" /><circle cx="1610" cy="950" r="4.5" fill="url(#gold-deep)" /><circle cx="1760" cy="890" r="3" fill="url(#gold-medium)" />
    <circle cx="1820" cy="270" r="4" fill="url(#gold-medium)" /><circle cx="1890" cy="560" r="3.5" fill="url(#gold-deep)" /><circle cx="1840" cy="810" r="4" fill="url(#gold-medium)" />
  </g>

  <g class="layer-fast">
    <circle cx="30" cy="40" r="2" fill="url(#gold-bright)" /><circle cx="110" cy="190" r="1.5" fill="url(#gold-bright)" /><circle cx="260" cy="210" r="2.5" fill="url(#gold-bright)" /><circle cx="370" cy="150" r="1" fill="url(#gold-bright)" />
    <circle cx="140" cy="350" r="2.5" fill="url(#gold-bright)" /><circle cx="210" cy="490" r="1.5" fill="url(#gold-bright)" /><circle cx="320" cy="410" r="2" fill="url(#gold-bright)" /><circle cx="400" cy="250" r="2.5" fill="url(#gold-bright)" />
    <circle cx="80" cy="590" r="1" fill="url(#gold-bright)" /><circle cx="170" cy="620" r="2.5" fill="url(#gold-bright)" /><circle cx="240" cy="780" r="1.5" fill="url(#gold-bright)" /><circle cx="350" cy="690" r="2" fill="url(#gold-bright)" />
    <circle cx="120" cy="870" r="2" fill="url(#gold-bright)" /><circle cx="290" cy="840" r="2.5" fill="url(#gold-bright)" /><circle cx="380" cy="970" r="1" fill="url(#gold-bright)" /><circle cx="450" cy="380" r="2" fill="url(#gold-bright)" />
    
    <circle cx="490" cy="120" r="2.5" fill="url(#gold-bright)" /><circle cx="530" cy="290" r="1.5" fill="url(#gold-bright)" /><circle cx="620" cy="180" r="2" fill="url(#gold-bright)" /><circle cx="710" cy="50" r="2.5" fill="url(#gold-bright)" />
    <circle cx="460" cy="430" r="1.5" fill="url(#gold-bright)" /><circle cx="580" cy="340" r="2" fill="url(#gold-bright)" /><circle cx="660" cy="470" r="2.5" fill="url(#gold-bright)" /><circle cx="780" cy="310" r="1" fill="url(#gold-bright)" />
    <circle cx="510" cy="660" r="2" fill="url(#gold-bright)" /><circle cx="630" cy="590" r="1.5" fill="url(#gold-bright)" /><circle cx="740" cy="710" r="2.5" fill="url(#gold-bright)" /><circle cx="800" cy="630" r="2" fill="url(#gold-bright)" />
    
    <circle cx="830" cy="190" r="2.5" fill="url(#gold-bright)" /><circle cx="950" cy="220" r="1" fill="url(#gold-bright)" /><circle cx="1070" cy="160" r="2" fill="url(#gold-bright)" /><circle cx="1190" cy="250" r="2.5" fill="url(#gold-bright)" />
    <circle cx="870" cy="410" r="1.5" fill="url(#gold-bright)" /><circle cx="990" cy="330" r="2.5" fill="url(#gold-bright)" /><circle cx="1040" cy="490" r="1" fill="url(#gold-bright)" /><circle cx="1120" cy="430" r="2" fill="url(#gold-bright)" />
    <circle cx="850" cy="610" r="2.5" fill="url(#gold-bright)" /><circle cx="920" cy="740" r="1.5" fill="url(#gold-bright)" /><circle cx="1090" cy="680" r="2" fill="url(#gold-bright)" /><circle cx="1160" cy="790" r="2.5" fill="url(#gold-bright)" />
    
    <circle cx="1250" cy="210" r="1.5" fill="url(#gold-bright)" /><circle cx="1370" cy="350" r="2.5" fill="url(#gold-bright)" /><circle cx="1490" cy="160" r="1" fill="url(#gold-bright)" /><circle cx="1630" cy="280" r="2" fill="url(#gold-bright)" />
    <circle cx="1210" cy="530" r="2.5" fill="url(#gold-bright)" /><circle cx="1340" cy="410" r="1.5" fill="url(#gold-bright)" /><circle cx="1460" cy="590" r="2" fill="url(#gold-bright)" /><circle cx="1600" cy="460" r="2.5" fill="url(#gold-bright)" />
    <circle cx="1270" cy="690" r="1" fill="url(#gold-bright)" /><circle cx="1390" cy="830" r="2.5" fill="url(#gold-bright)" /><circle cx="1510" cy="710" r="1.5" fill="url(#gold-bright)" /><circle cx="1650" cy="850" r="2" fill="url(#gold-bright)" />
    
    <circle cx="1730" cy="150" r="2" fill="url(#gold-bright)" /><circle cx="1790" cy="480" r="2.5" fill="url(#gold-bright)" /><circle cx="1880" cy="320" r="1.5" fill="url(#gold-bright)" /><circle cx="1840" cy="690" r="2" fill="url(#gold-bright)" />
    <circle cx="1700" cy="920" r="2.5" fill="url(#gold-bright)" /><circle cx="1770" cy="780" r="1" fill="url(#gold-bright)" /><circle cx="1910" cy="840" r="2" fill="url(#gold-bright)" /><circle cx="1570" cy="910" r="1.5" fill="url(#gold-bright)" />
  </g>
</svg>
